<svg width="79" height="73" viewBox="0 0 79 73" fill="none" xmlns="http://www.w3.org/2000/svg">
<g opacity="0.5">
<path d="M38.9682 37.8589C33.6361 38.0659 29.1288 38.3174 29.1288 38.3174C29.1288 38.3174 28.6434 38.3798 26.9839 38.4358C23.9473 38.5382 20.2325 38.694 13.5949 38.9973C6.62382 39.3159 4.42268 39.3968 4.02479 39.3494C2.46923 39.1641 1.22396 37.7378 1.26239 36.1855C1.28466 35.2892 1.53676 34.7088 2.18588 34.0597C2.60494 33.6406 3.00122 33.3687 3.37299 33.2451C3.99753 33.0375 6.83626 33.1219 19.2249 33.7165C22.5366 33.8755 25.9062 34.0326 26.7129 34.0656C27.5197 34.0986 28.3408 34.1353 28.5375 34.1473C28.7342 34.1591 28.9535 34.1544 28.9535 34.1544L35.7995 34.4622C42.2462 34.7287 44.3469 34.754 45.0796 34.5735C45.9013 34.3713 46.4315 34.0179 47.8968 32.696C51.0758 29.828 51.5578 29.4846 53.1537 28.9507C55.9947 28.0002 59.3311 28.1396 62.9773 29.3612C67.6396 30.9232 70.9452 33.8239 70.8866 36.3018C70.8529 37.7294 69.7698 39.2549 67.7682 40.6945C65.7788 42.1251 63.2585 43.1821 60.4274 43.7732C56.961 44.497 53.8269 44.1147 51.3764 42.6692C50.5838 42.2017 50.2112 41.9018 48.5882 40.4251C47.0749 39.0483 46.3222 38.4113 45.9496 38.1924C45.8282 38.121 45.5187 37.9966 45.262 37.916C44.6288 37.7171 43.0007 37.7023 38.9682 37.8589Z" fill="white"/>
<path d="M39.9999 46C43.458 51.978 49.9214 56 57.3242 56C68.3699 56 77.3242 47.0457 77.3242 36C77.3242 24.9543 68.3699 16 57.3242 16C49.9214 16 43.458 20.022 39.9999 26" stroke="white" stroke-width="2" stroke-linecap="round"/>
</g>
</svg>
