<svg width="82" height="76" viewBox="0 0 82 76" fill="none" xmlns="http://www.w3.org/2000/svg">
<path d="M16.964 42.673C12.3679 42.6433 11.3834 42.6171 10.9646 42.5135C10.7181 42.4526 10.5087 42.214 10.4859 41.9682C10.471 41.8081 10.6918 41.502 10.8703 41.4353C11.1943 41.3141 12.4717 41.2861 18.5919 41.2659C26.0912 41.2411 27.0705 41.2031 27.3481 40.9256C27.4562 40.8175 27.4562 40.2709 27.3481 40.1628C27.2253 40.04 26.6991 39.9383 25.9206 39.8869C25.5425 39.862 22.3631 39.8326 18.8551 39.8217C12.8126 39.803 11.1819 39.7678 10.8616 39.6493C10.6455 39.5693 10.4616 39.2525 10.5064 39.0374C10.5737 38.7146 10.7837 38.57 11.2818 38.5038C11.8269 38.4313 14.094 38.3969 19.6464 38.377C21.9519 38.3687 24.5686 38.3473 25.4614 38.3294C26.9775 38.299 27.0955 38.286 27.249 38.1324C27.4617 37.9198 27.4908 37.501 27.3058 37.3159C27.0148 37.025 26.5277 37.0024 19.8251 36.9695C13.2927 36.9373 10.743 36.8793 10.6236 36.7599C10.495 36.6313 10.5309 36.0075 10.6752 35.8632C10.8625 35.6759 12.1324 35.6381 19.0752 35.6136C25.3377 35.5913 26.7145 35.5622 27.0696 35.4442C27.4248 35.3262 27.5606 34.8297 27.3317 34.4863C27.2371 34.3443 27.155 34.32 26.6408 34.2815C25.8527 34.2225 23.3232 34.1911 17.5406 34.1686C12.0245 34.1472 10.8616 34.1057 10.6797 33.9238C10.5316 33.7757 10.4901 33.3927 10.5948 33.14C10.6596 32.9834 10.7002 32.9474 10.8456 32.9171C11.4822 32.7845 18.806 32.6921 24.449 32.7455C30.4742 32.8025 31.9802 32.8506 32.4441 33.0011C32.8075 33.119 33.3619 33.5006 34.301 34.2794C36.2237 35.8738 36.8326 36.1843 38.1119 36.2225C39.0237 36.2497 52.2231 35.6715 52.4917 35.5957C52.5604 35.6644 54.0784 35.6033 62.9393 35.1757C71.571 34.7591 74.8864 34.6254 76.6801 34.6216C78.2093 34.6185 78.3225 34.6599 79.2197 35.5524L79.837 36.1664L80.0092 36.6748C80.2231 37.3065 80.2315 37.9333 80.0344 38.5669C79.7087 39.6139 79.0048 40.3698 78.0632 40.6835C77.7163 40.7991 75.3796 40.7974 72.6861 40.6794C71.5778 40.6309 66.6215 40.4009 61.6722 40.1684C56.7229 39.9359 52.3819 39.7383 52.2713 39.7355C51.9846 39.6594 40.6992 39.232 38.6772 39.221C37.4648 39.2143 37.2556 39.2332 36.8273 39.3879C36.2362 39.6015 35.7586 39.9211 34.6745 40.8284C33.2384 42.0303 32.6595 42.3904 31.8865 42.5625C31.4632 42.6567 23.536 42.7154 16.964 42.673Z" fill="#D1191C"/>
<path d="M38.3244 28C34.8663 22.022 28.4028 18 21 18C9.9543 18 1 26.9543 1 38C1 49.0457 9.9543 58 21 58C28.4028 58 34.8663 53.978 38.3244 48" stroke="#D1191C" stroke-width="2" stroke-linecap="round"/>
</svg>
