<svg width="126" height="126" viewBox="0 0 126 126" fill="none" xmlns="http://www.w3.org/2000/svg">
<g filter="url(#filter0_d_19_1480)">
<path d="M41.0072 0C100 5.75448 100 28.2543 100 43.8779C93.2403 83.1889 78.3009 99.2647 56.1151 99.2647C15.0367 92.4609 0 73.9337 0 47.4744C5.54645 16.4792 27.1411 0 41.0072 0Z" fill="#D1191C"/>
</g>
<path fill-rule="evenodd" clip-rule="evenodd" d="M46.7416 22.0759C45.0845 22.281 43.6175 23.296 42.863 24.7597C42.2675 25.9147 42.3033 24.9137 42.3017 40.4187L42.3003 54.3601L41.5902 54.8216C40.6825 55.4115 39.1582 56.8691 38.4612 57.8138C35.5784 61.7204 35.1962 66.9097 37.4832 71.091C39.6698 75.0887 43.6646 77.6241 48.311 77.9634C54.295 78.4003 59.821 74.8917 61.8113 69.3915C62.338 67.9356 62.4693 67.1234 62.4693 65.3184C62.4693 63.4756 62.355 62.7123 61.8614 61.257C61.0127 58.7554 59.3805 56.583 57.1439 54.9785C56.6914 54.6539 56.2891 54.3882 56.2501 54.3882C56.2099 54.3882 56.1785 48.3442 56.1778 40.4328C56.1761 24.915 56.2119 25.9162 55.6176 24.7597C54.8643 23.2941 53.4143 22.3039 51.6821 22.0721C50.9494 21.974 47.5434 21.9767 46.7416 22.0759ZM52.2022 24.2256C53.0596 24.6135 53.5994 25.1588 53.9057 25.9463C54.0716 26.3729 54.0723 26.4407 54.0734 40.922L54.0744 55.4693L54.5384 55.7208C57.1374 57.1294 58.9064 59.1426 59.8555 61.772C60.2888 62.9727 60.4412 63.9067 60.434 65.3184C60.4249 67.1272 60.0926 68.4916 59.284 70.0406C57.6713 73.1304 54.7648 75.2193 51.1652 75.8758C50.3569 76.0232 48.0229 76.0001 47.1701 75.8361C42.669 74.971 39.2112 71.6872 38.2737 67.3873C38.0605 66.4095 38.0564 64.0814 38.2664 63.1452C38.7642 60.9248 39.801 59.101 41.4554 57.5353C42.1208 56.9055 43.2822 56.0828 44.1521 55.6249L44.3982 55.4953L44.4068 40.9386C44.4115 32.9323 44.446 26.2793 44.4834 26.154C44.6834 25.4831 45.1601 24.8754 45.7928 24.4848C46.5181 24.0372 46.6448 24.0215 49.3615 24.0418C51.6911 24.0593 51.8585 24.0701 52.2022 24.2256ZM58.2257 26.4541L58.2488 27.258H60.3861H62.5233L62.7601 27.003C63.0799 26.6585 63.08 26.2961 62.7601 25.9515L62.5234 25.6965L60.3629 25.6733L58.2025 25.6502L58.2257 26.4541ZM58.2082 31.4385V32.2228L60.3975 32.1997C62.5521 32.177 62.5897 32.1738 62.7715 31.9987C62.915 31.8606 62.9562 31.7327 62.9562 31.426C62.9562 31.09 62.9222 31.0028 62.7285 30.8425L62.5007 30.6542H60.3545H58.2082V31.4385ZM58.2429 35.6765C58.2201 35.7336 58.2121 36.0937 58.2252 36.4767L58.2488 37.1732L60.2779 37.1932C62.1868 37.212 62.3227 37.2039 62.5727 37.0565C63.0708 36.763 63.1348 36.2363 62.7209 35.8382L62.4449 35.5727H60.3646C58.7092 35.5727 58.2758 35.5939 58.2429 35.6765ZM47.686 30.539C47.1121 30.7559 46.5622 31.2454 46.2529 31.8148L45.9932 32.2926L45.9712 49.0983L45.9491 57.4322L45.5248 57.6379C43.7978 58.4752 42.3066 59.9267 41.4569 61.5976C39.2455 65.946 41.1034 71.1087 45.6686 73.3013C46.7928 73.8414 48.2108 74.1411 49.6342 74.1396C53.8977 74.1352 57.5756 71.2575 58.4638 67.2312C58.6559 66.3603 58.6746 64.692 58.5019 63.8282C58.1486 62.0615 57.33 60.5784 56.0008 59.2971C55.2081 58.533 54.1101 57.7982 53.2588 57.4624L52.6897 57.2379L52.6843 52.5535C52.6813 49.9771 52.6832 46.4396 52.6884 44.6924C52.6982 41.4714 52.6523 32.3282 52.3884 31.8274C52.1421 31.3603 51.7206 30.9508 51.2148 30.6869L50.7007 30.4188L49.4021 30.4C48.2615 30.3834 48.0527 30.4003 47.686 30.539ZM58.2082 41.3501V42.1308H60.2819C62.5681 42.1308 62.7259 42.103 62.9135 41.6674C63.0535 41.3425 62.9579 40.925 62.6988 40.7289C62.4986 40.5774 62.3801 40.5694 60.3481 40.5694H58.2082V41.3501ZM58.2257 46.2882L58.2488 47.0884H60.3329C62.3219 47.0884 62.4275 47.0809 62.646 46.9248C62.9417 46.7135 63.06 46.2917 62.9169 45.9592C62.7255 45.5148 62.5751 45.488 60.2791 45.488H58.2025L58.2257 46.2882Z" fill="white"/>
<defs>
<filter id="filter0_d_19_1480" x="0" y="0" width="125.797" height="125.062" filterUnits="userSpaceOnUse" color-interpolation-filters="sRGB">
<feFlood flood-opacity="0" result="BackgroundImageFix"/>
<feColorMatrix in="SourceAlpha" type="matrix" values="0 0 0 0 0 0 0 0 0 0 0 0 0 0 0 0 0 0 127 0" result="hardAlpha"/>
<feOffset dx="12.8986" dy="12.8986"/>
<feGaussianBlur stdDeviation="6.44928"/>
<feComposite in2="hardAlpha" operator="out"/>
<feColorMatrix type="matrix" values="0 0 0 0 0 0 0 0 0 0 0 0 0 0 0 0 0 0 0.5 0"/>
<feBlend mode="normal" in2="BackgroundImageFix" result="effect1_dropShadow_19_1480"/>
<feBlend mode="normal" in="SourceGraphic" in2="effect1_dropShadow_19_1480" result="shape"/>
</filter>
</defs>
</svg>
