<svg width="126" height="126" viewBox="0 0 126 126" fill="none" xmlns="http://www.w3.org/2000/svg">
<g filter="url(#filter0_d_19_1487)">
<path d="M41.0072 0C100 5.75448 100 28.2543 100 43.8779C93.2403 83.1889 78.3009 99.2647 56.1151 99.2647C15.0367 92.4609 0 73.9337 0 47.4744C5.54645 16.4792 27.1411 0 41.0072 0Z" fill="#D1191C"/>
</g>
<path fill-rule="evenodd" clip-rule="evenodd" d="M49.1866 22.0846C48.455 22.2776 48.1757 22.4708 47.1755 23.4755C46.6586 23.9948 46.0854 24.5216 45.9017 24.6463C44.962 25.2838 43.8337 25.6559 42.5967 25.7358C41.8753 25.7824 41.4445 25.7124 40.2017 25.347C39.3161 25.0866 39.1339 25.0516 38.6483 25.0485C37.7203 25.0424 36.9954 25.335 36.3423 25.9793C35.797 26.5173 35.5945 26.9522 35.2594 28.306C34.8615 29.913 34.4313 30.6884 33.3867 31.6821C32.4744 32.5498 31.8355 32.8761 30.3016 33.2575C28.9644 33.59 28.5111 33.7996 27.9943 34.3244C27.3384 34.9904 27.0418 35.7199 27.0501 36.6462C27.0545 37.1309 27.0905 37.3168 27.3531 38.2069C27.7081 39.4104 27.7877 39.9105 27.7387 40.6308C27.6559 41.8481 27.2826 42.9712 26.6517 43.9015C26.5271 44.0853 26.0004 44.6587 25.4813 45.1758C24.7033 45.9506 24.5055 46.1821 24.3563 46.4924C23.8294 47.5878 23.8903 48.8371 24.5163 49.7738C24.6406 49.96 25.1178 50.4771 25.5766 50.9231C26.0355 51.3691 26.5229 51.9003 26.6598 52.1035C27.2256 52.9436 27.6022 54.0141 27.716 55.1064C27.805 55.9609 27.7353 56.4734 27.3515 57.7864C27.0823 58.7075 27.0552 58.8529 27.0553 59.3792C27.0554 60.3314 27.3987 61.1387 28.0664 61.7575C28.547 62.2029 29.0675 62.4321 30.2866 62.7352C30.8627 62.8784 31.5118 63.0754 31.729 63.1729C33.0961 63.7864 34.4895 65.2575 34.9475 66.5706C35.0123 66.7565 35.1673 67.3256 35.2919 67.8353C35.5793 69.0109 35.8056 69.4851 36.326 70.0029C36.9869 70.6606 37.6873 70.945 38.6362 70.9412C39.1387 70.9392 39.3018 70.9083 40.1722 70.6494C40.7078 70.4902 41.3571 70.3291 41.6151 70.2913C42.6698 70.137 44.1396 70.4033 45.2083 70.9423C45.853 71.2674 46.2213 71.5624 47.1755 72.5177C48.185 73.5283 48.4757 73.7278 49.2132 73.9157C49.6555 74.0283 50.3421 74.0281 50.7759 73.9151C51.499 73.7266 51.8658 73.4724 52.8634 72.4677C53.3729 71.9545 53.9071 71.455 54.0504 71.3577C55.2777 70.5243 57.1069 70.0827 58.4375 70.2987C58.6371 70.3311 59.2494 70.4886 59.7982 70.6487C60.6781 70.9054 60.861 70.9402 61.3466 70.9425C62.2952 70.9472 63.0378 70.6393 63.7005 69.9666C64.2006 69.4589 64.4037 69.0104 64.7313 67.6905C65.1319 66.0764 65.5344 65.348 66.581 64.343C67.5111 63.4498 68.1528 63.1193 69.6967 62.7385C70.9986 62.4174 71.4659 62.2035 71.9718 61.6975C72.6678 61.0013 72.958 60.2403 72.9143 59.2265C72.8929 58.7294 72.8426 58.472 72.6217 57.7285C72.4751 57.2348 72.3273 56.6761 72.2934 56.4871C72.1065 55.4447 72.3419 54.0374 72.8975 52.8765C73.2768 52.0839 73.4328 51.883 74.4592 50.8652C75.226 50.1048 75.4317 49.8648 75.606 49.5277C76.1214 48.5311 76.1312 47.5046 75.6352 46.4924C75.4854 46.1868 75.2734 45.9388 74.5099 45.1758C73.5549 44.2213 73.26 43.8528 72.9349 43.208C72.4041 42.1547 72.1341 40.6882 72.281 39.6549C72.3153 39.4143 72.4763 38.7627 72.639 38.2069C72.8992 37.318 72.9353 37.1303 72.9391 36.6462C72.9465 35.7064 72.6532 34.9842 71.9959 34.3232C71.4835 33.808 71.0087 33.5816 69.8288 33.2899C69.3193 33.1639 68.7477 33.0072 68.5585 32.9416C67.251 32.488 65.7819 31.0945 65.1677 29.725C65.0702 29.5077 64.8733 28.8585 64.7301 28.2822C64.4037 26.9688 64.1939 26.5164 63.6684 25.9935C63.0073 25.3356 62.2806 25.0395 61.3461 25.0474C60.8606 25.0515 60.677 25.0872 59.7827 25.3514C59.2109 25.5203 58.5341 25.6788 58.2294 25.7152C56.9488 25.8683 55.2985 25.4509 54.1261 24.6776C53.9412 24.5556 53.3599 24.0228 52.8344 23.4935C51.8077 22.4593 51.539 22.2745 50.7812 22.081C50.3529 21.9716 49.6082 21.9732 49.1866 22.0846ZM51.7268 28.1056C58.6819 28.7179 64.7256 32.8318 67.8661 39.0918C70.9326 45.2042 70.6215 52.4993 67.0425 58.404C65.4582 61.0178 63.0132 63.4635 60.4001 65.0482C58.6498 66.1097 56.8233 66.8734 54.8385 67.3734C49.8892 68.6204 44.5368 67.8878 40.1248 65.3594C37.1946 63.6802 34.6649 61.2251 32.9484 58.3946C30.7332 54.7417 29.7364 50.5061 30.1059 46.3165C30.2151 45.0783 30.3225 44.416 30.5988 43.2779C31.3044 40.3716 32.584 37.7909 34.5046 35.401C36.2352 33.2475 38.5253 31.4134 41.0932 30.1244C44.3686 28.4803 48.0481 27.7818 51.7268 28.1056ZM48.8243 31.3777C44.4615 31.6914 40.2769 33.7871 37.4369 37.0806C35.5358 39.2853 34.2441 41.9003 33.6749 44.6969C33.3486 46.3 33.2609 48.4602 33.4608 49.9675C34.1481 55.1471 36.8978 59.4411 41.2829 62.1823C41.9909 62.6249 43.4025 63.3201 44.1601 63.5995C51.1927 66.1923 58.9845 63.8631 63.4136 57.8444C66.6184 53.4891 67.5 47.8581 65.7821 42.7148C64.0746 37.6028 59.9656 33.62 54.7742 32.045C52.9647 31.4961 50.704 31.2425 48.8243 31.3777ZM59.3876 39.8591C61.2963 40.5098 62.1625 42.6397 61.2782 44.5084C61.1043 44.8759 60.7212 45.2726 54.9516 51.06C50.9658 55.0582 48.6899 57.2996 48.4673 57.4461C47.9592 57.7806 47.3332 57.9604 46.6793 57.9595C46.0707 57.9587 45.6768 57.8689 45.136 57.6075C44.7914 57.4409 44.4178 57.085 41.0142 53.6814C37.2763 49.9434 37.2711 49.9379 37.0323 49.4462C36.3969 48.1375 36.6492 46.676 37.6871 45.6525C38.3714 44.9778 39.0597 44.6969 40.0289 44.6969C40.6743 44.6969 41.3044 44.879 41.8085 45.2112C42.0124 45.3456 43.0551 46.3437 44.3804 47.6734C45.6063 48.9033 46.6356 49.9095 46.6677 49.9095C46.6997 49.9095 48.8495 47.7825 51.4449 45.1829C54.4067 42.2163 56.2901 40.3731 56.5028 40.2328C57.3563 39.67 58.4263 39.5314 59.3876 39.8591Z" fill="white"/>
<defs>
<filter id="filter0_d_19_1487" x="0" y="0" width="125.797" height="125.062" filterUnits="userSpaceOnUse" color-interpolation-filters="sRGB">
<feFlood flood-opacity="0" result="BackgroundImageFix"/>
<feColorMatrix in="SourceAlpha" type="matrix" values="0 0 0 0 0 0 0 0 0 0 0 0 0 0 0 0 0 0 127 0" result="hardAlpha"/>
<feOffset dx="12.8986" dy="12.8986"/>
<feGaussianBlur stdDeviation="6.44928"/>
<feComposite in2="hardAlpha" operator="out"/>
<feColorMatrix type="matrix" values="0 0 0 0 0 0 0 0 0 0 0 0 0 0 0 0 0 0 0.5 0"/>
<feBlend mode="normal" in2="BackgroundImageFix" result="effect1_dropShadow_19_1487"/>
<feBlend mode="normal" in="SourceGraphic" in2="effect1_dropShadow_19_1487" result="shape"/>
</filter>
</defs>
</svg>
