<svg width="126" height="126" viewBox="0 0 126 126" fill="none" xmlns="http://www.w3.org/2000/svg">
<g filter="url(#filter0_d_19_1494)">
<path d="M41.0072 0C100 5.75448 100 28.2543 100 43.8779C93.2403 83.1889 78.3009 99.2647 56.1151 99.2647C15.0367 92.4609 0 73.9337 0 47.4744C5.54645 16.4792 27.1411 0 41.0072 0Z" fill="#D1191C"/>
</g>
<path fill-rule="evenodd" clip-rule="evenodd" d="M35.7884 16.4668C34.5503 17.0845 34.0193 17.8262 34.0127 18.9466C34.0089 19.6042 35.207 23.0294 38.5379 31.8839C41.0295 38.5075 43.1112 43.9728 43.1638 44.0291C43.2163 44.0851 44.6318 43.6705 46.3092 43.1076L49.3592 42.0843L49.0664 41.3445C48.9052 40.9375 46.8517 35.4656 44.5029 29.1846C42.1543 22.9035 40.0623 17.5309 39.8541 17.2454C39.3731 16.5857 38.2058 16.0004 37.3711 16C37.0157 15.9998 36.3035 16.2097 35.7884 16.4668ZM37.6099 21.2009C39.235 25.4428 45.1413 41.1715 45.1413 41.2579C45.1413 41.3769 44.0344 41.7733 43.9451 41.6863C43.9045 41.6466 42.0966 36.9019 39.9275 31.1428C37.7585 25.3836 35.8427 20.3182 35.6704 19.8864C35.3684 19.1299 35.3746 19.0946 35.8365 18.914C36.1002 18.811 36.402 18.7485 36.5074 18.7751C36.6127 18.8019 37.1089 19.8934 37.6099 21.2009ZM47.2902 43.5156C43.5363 44.5442 40.6441 47.7277 40.0187 51.519C39.7971 52.8628 39.9328 54.8279 40.2471 54.8279C40.3768 54.8279 55.6487 49.4291 58.2876 48.4505C58.7791 48.2682 58.7778 48.2638 57.8398 47.0199C56.8205 45.6677 55.1145 44.4312 53.35 43.7656C51.8948 43.2166 48.841 43.0905 47.2902 43.5156ZM45.7793 46.9486C45.7793 47.0261 45.6011 47.312 45.3831 47.5844C44.6858 48.4563 44.0463 49.868 43.7875 51.1074L43.5357 52.3128L42.8322 51.878C42.1919 51.482 42.1413 51.3776 42.2691 50.7129C42.4873 49.5773 43.1633 47.948 43.8643 46.8691L44.5025 45.8864L45.1409 46.3473C45.492 46.6006 45.7793 46.8714 45.7793 46.9486ZM63.0279 47.9169C61.6517 48.5788 61.1996 50.5238 62.1075 51.8765C63.1942 53.4963 66.0304 53.2422 66.903 51.4469C67.3434 50.5408 67.3451 50.2729 66.9177 49.2298C66.3039 47.7323 64.6045 47.1586 63.0279 47.9169ZM49.8473 53.1228L40.4113 56.5752L40.5461 57.8297C41.0499 62.5165 41.139 64.5362 41.0363 68.9473C40.974 71.631 40.8073 74.5078 40.6658 75.3404C40.5244 76.1729 40.4636 76.9075 40.5306 76.9729C40.5974 77.0381 41.6383 76.9816 42.8435 76.8473C46.3981 76.4507 45.9754 77.156 46.0413 71.5141L46.0983 66.6489L47.7792 71.0685C48.7038 73.4991 49.52 75.556 49.593 75.6392C49.6661 75.7225 50.8236 75.5107 52.1653 75.1685C55.7163 74.263 56.625 73.9412 56.625 73.5888C56.625 73.4192 56.1944 71.424 55.6681 69.1549C55.1417 66.8858 54.7111 64.9677 54.7111 64.8921C54.7111 64.8165 55.8671 66.4689 57.28 68.564C58.693 70.659 59.9134 72.4389 59.9921 72.5193C60.158 72.6883 66.0623 69.9475 66.2829 69.5993C66.3637 69.4713 66.0317 68.5482 65.5447 67.5478C65.0579 66.5474 64.4278 65.2289 64.1443 64.6176L63.6291 63.5063L66.0868 65.7596C67.4385 66.999 68.6375 68.0438 68.751 68.0818C68.9194 68.1381 73 65.4691 73 65.3026C73 65.2752 71.4829 63.7715 69.6289 61.9609C66.2208 58.6333 63.1293 55.0343 60.6816 51.5447C59.9453 50.4955 59.3297 49.6444 59.3133 49.6535C59.2967 49.6629 55.0371 51.2239 49.8473 53.1228ZM31.7774 60.7665C30.0597 61.9414 31.4476 64.6126 33.4258 63.9392C34.125 63.7013 34.7209 62.8502 34.7209 62.0896C34.7209 61.8467 34.4412 61.3749 34.0993 61.041C33.3924 60.3508 32.5339 60.2493 31.7774 60.7665ZM35.9509 64.835C34.9516 65.0943 33.7647 66.3518 33.5719 67.3553C33.2429 69.0677 34.5973 71.034 36.3237 71.3503C38.617 71.7703 40.8021 69.6368 40.3719 67.3977C40.1786 66.3919 38.9922 65.1354 37.9472 64.8296C37.0098 64.5555 37.0278 64.5553 35.9509 64.835Z" fill="white"/>
<defs>
<filter id="filter0_d_19_1494" x="0" y="0" width="125.797" height="125.062" filterUnits="userSpaceOnUse" color-interpolation-filters="sRGB">
<feFlood flood-opacity="0" result="BackgroundImageFix"/>
<feColorMatrix in="SourceAlpha" type="matrix" values="0 0 0 0 0 0 0 0 0 0 0 0 0 0 0 0 0 0 127 0" result="hardAlpha"/>
<feOffset dx="12.8986" dy="12.8986"/>
<feGaussianBlur stdDeviation="6.44928"/>
<feComposite in2="hardAlpha" operator="out"/>
<feColorMatrix type="matrix" values="0 0 0 0 0 0 0 0 0 0 0 0 0 0 0 0 0 0 0.5 0"/>
<feBlend mode="normal" in2="BackgroundImageFix" result="effect1_dropShadow_19_1494"/>
<feBlend mode="normal" in="SourceGraphic" in2="effect1_dropShadow_19_1494" result="shape"/>
</filter>
</defs>
</svg>
