<svg width="126" height="126" viewBox="0 0 126 126" fill="none" xmlns="http://www.w3.org/2000/svg">
<g filter="url(#filter0_d_19_1501)">
<path d="M41.0072 0C100 5.75448 100 28.2543 100 43.8779C93.2403 83.1888 78.3009 99.2647 56.1151 99.2647C15.0367 92.4609 0 73.9337 0 47.4744C5.54645 16.4792 27.1411 0 41.0072 0Z" fill="#D1191C"/>
</g>
<path fill-rule="evenodd" clip-rule="evenodd" d="M49.5605 21.3884C48.3505 22.7142 47.5459 24.5393 47.5474 25.9544C47.5488 27.3001 47.8779 28.2048 49.2011 30.5006C50.3232 32.4473 50.5974 33.2336 50.5998 34.5105C50.6018 35.5738 50.2761 36.4901 49.4464 37.7556C49.2168 38.1057 49.0473 38.4042 49.0695 38.419C49.0916 38.4337 49.4173 38.6731 49.7931 38.9509C50.1618 39.2234 50.6845 39.1247 50.9285 38.7364L50.975 38.6624C52.8991 35.6001 52.886 33.2661 50.9262 29.9448C48.9391 26.5771 48.8438 25.4593 50.3586 23.2861L50.6144 22.9189C50.8969 22.5136 50.8522 21.9648 50.508 21.6104L50.2815 21.3772C50.0827 21.1727 49.7527 21.1778 49.5605 21.3884ZM42.6247 25.189C41.3726 26.6226 40.7798 28.3633 41.0221 29.8953C41.1811 30.9012 41.5882 31.8088 42.6532 33.5315C44.3605 36.2931 44.4419 37.6456 43.0346 39.8691C42.7229 40.3617 42.5303 40.7991 42.5985 40.8594C42.6658 40.9189 42.9771 41.1698 43.2903 41.4172C43.5965 41.659 44.0442 41.587 44.2591 41.2613L44.4237 41.0117C45.3477 39.6111 45.6756 38.721 45.7488 37.414C45.8339 35.8959 45.4736 34.7213 44.3923 32.9921C43.1788 31.0511 42.7677 30.1019 42.76 29.223C42.752 28.2946 43.0869 27.4854 43.9104 26.4446L44.0285 26.2954C44.3159 25.9321 44.287 25.4115 43.9611 25.0822C43.6471 24.765 43.3524 24.5054 43.3061 24.5054C43.2597 24.5054 42.9532 24.813 42.6247 25.189ZM56.0183 24.9602C54.7766 26.3128 54.1819 27.688 54.186 29.1969C54.1894 30.4746 54.5088 31.3403 55.6599 33.1916C56.8522 35.1092 57.1907 35.9606 57.1948 37.0526C57.1985 38.0286 56.9281 38.7961 56.1619 39.9843C55.8908 40.4049 55.6917 40.7644 55.7197 40.7832C55.7477 40.8018 56.0581 41.0525 56.4092 41.3402C56.7506 41.62 57.2592 41.5428 57.5022 41.1743L57.6106 41.01C58.6891 39.3753 58.8919 38.7553 58.8902 37.0992C58.8883 35.313 58.6882 34.717 57.3802 32.6036C56.161 30.6334 55.9806 30.194 55.9806 29.1931C55.9806 28.1793 56.2517 27.5121 57.0981 26.4423L57.2143 26.2955C57.5018 25.9322 57.4728 25.4115 57.1469 25.0822C56.8329 24.765 56.5445 24.5054 56.5059 24.5054C56.4674 24.5054 56.2479 24.7101 56.0183 24.9602ZM22.5 44C22.45 44.0515 21.8547 44.2788 21.8547 44.9587C21.8547 45.6413 22.408 46.1947 23.0907 46.1947H49.9986H76.8475C77.5562 46.1947 78.1248 45.6088 78.1034 44.9003C78.0816 44.179 77.491 43.6053 76.7693 43.6044L50.0504 43.5707C34.6428 43.5513 22.55 43.9485 22.5 44ZM24.5735 48.4686C24.5737 48.6418 24.7221 49.4131 24.9036 50.1827C26.3698 56.4035 30.2385 61.6611 35.93 65.1675L36.6768 65.6277C36.9923 65.822 37.3555 65.925 37.726 65.925H49.9789H62.2397C62.6052 65.925 62.9636 65.8249 63.2761 65.6355L64.0423 65.1713C68.7176 62.3387 72.3957 57.9349 74.2387 52.9636C74.6998 51.7196 75.1925 49.8669 75.3594 48.7484C75.4062 48.4353 75.1636 48.1537 74.847 48.1537H50.0108H24.8882C24.7144 48.1537 24.5734 48.2947 24.5735 48.4686ZM19.3337 53.8146C19.0881 54.0674 19 54.3093 19 54.7305C19 55.1517 19.0881 55.3936 19.3337 55.6463C19.6653 55.9878 19.6839 55.9899 22.3356 55.9899C23.8032 55.9899 24.9835 55.9398 24.9585 55.8786C24.9336 55.8175 24.6991 55.2516 24.4374 54.6211C24.1494 53.927 23.472 53.4743 22.7205 53.4737L21.8146 53.4729C19.7149 53.4711 19.66 53.4787 19.3337 53.8146ZM75.4571 54.7333C75.1908 55.3223 75.6215 55.9899 76.268 55.9899H77.5795H79.7557C80.0846 55.9899 80.3994 55.8568 80.6285 55.621C81.114 55.1213 81.1251 54.3003 80.6531 53.8146C80.3269 53.4787 80.2725 53.4711 78.1723 53.4739L77.3141 53.475C76.5293 53.4761 75.8176 53.936 75.4943 54.6511L75.4571 54.7333ZM36.5702 69.2483C36.3414 69.8447 35.6651 71.608 35.0674 73.1664L35.0224 73.2838C34.52 74.5935 35.487 76 36.8897 76H49.9896H63.0891C64.492 76 65.4589 74.5934 64.9564 73.2836L64.4954 72.0819L63.4847 69.4475C63.188 68.6743 62.4455 68.1639 61.6174 68.1639H49.9892H38.1476C37.448 68.1639 36.8207 68.5951 36.5702 69.2483Z" fill="white"/>
<defs>
<filter id="filter0_d_19_1501" x="0" y="0" width="125.797" height="125.062" filterUnits="userSpaceOnUse" color-interpolation-filters="sRGB">
<feFlood flood-opacity="0" result="BackgroundImageFix"/>
<feColorMatrix in="SourceAlpha" type="matrix" values="0 0 0 0 0 0 0 0 0 0 0 0 0 0 0 0 0 0 127 0" result="hardAlpha"/>
<feOffset dx="12.8986" dy="12.8986"/>
<feGaussianBlur stdDeviation="6.44928"/>
<feComposite in2="hardAlpha" operator="out"/>
<feColorMatrix type="matrix" values="0 0 0 0 0 0 0 0 0 0 0 0 0 0 0 0 0 0 0.5 0"/>
<feBlend mode="normal" in2="BackgroundImageFix" result="effect1_dropShadow_19_1501"/>
<feBlend mode="normal" in="SourceGraphic" in2="effect1_dropShadow_19_1501" result="shape"/>
</filter>
</defs>
</svg>
