<svg width="70" height="70" viewBox="0 0 70 70" fill="none" xmlns="http://www.w3.org/2000/svg">
<g filter="url(#filter0_d_112_32)">
<path d="M25.5036 5C55 7.8777 55 19.1294 55 26.9424C51.6201 46.6011 44.1505 54.6403 33.0576 54.6403C12.5183 51.2378 5 41.9728 5 28.741C7.77323 13.2409 18.5705 5 25.5036 5Z" fill="#D1191C"/>
</g>
<path fill-rule="evenodd" clip-rule="evenodd" d="M27.6157 20.8379C27.0136 20.8833 26.2504 21.0043 25.945 21.1028C25.4206 21.2718 24.7671 21.8746 24.8879 22.0778C24.9101 22.1152 25.0318 22.1657 25.1582 22.1901C25.7258 22.2996 26.2045 22.6341 26.4191 23.0711C26.7858 23.8181 26.9508 26.1546 26.7534 27.8086C26.6231 28.9019 26.5679 29.1553 26.3746 29.5518C25.856 30.6152 24.6648 29.7543 23.352 27.3674C22.8849 26.518 21.5701 23.7918 21.2768 23.0644C20.9222 22.1852 20.8099 22.0233 20.4068 21.8101L20.0665 21.6302L17.4986 21.6494C15.1796 21.6667 14.9112 21.6796 14.7301 21.7824C14.4429 21.9455 14.3203 22.168 14.3583 22.4575C14.3989 22.7676 15.3729 25.017 16.0906 26.4584C17.488 29.2648 18.6715 31.3026 19.9367 33.0806C21.7974 35.6958 22.6207 36.5443 24.5218 37.8063C25.4095 38.3957 26.0502 38.7254 26.8422 39.0003C27.9305 39.3782 28.4042 39.4509 30.029 39.4895C31.6459 39.528 32.1105 39.4795 32.4531 39.2367C32.7353 39.0367 32.8226 38.7607 32.8753 37.9027C32.9273 37.0558 33.0864 36.3297 33.3052 35.9419C33.4982 35.5997 33.9177 35.2045 34.0977 35.1952C34.7258 35.163 35.0774 35.4342 36.3894 36.9623C37.6196 38.395 38.0743 38.8166 38.7539 39.1548C39.0602 39.3071 39.4361 39.4617 39.5892 39.4982C39.9604 39.5867 44.9721 39.4872 45.2957 39.3849C45.616 39.2836 45.9611 38.9319 45.969 38.6987C45.9906 38.0605 45.9011 37.7728 45.4713 37.0985C44.9065 36.2123 44.4213 35.6463 42.7693 33.9471C41.015 32.1427 40.8925 31.9747 40.89 31.3711C40.8879 30.8643 41.1159 30.475 42.656 28.3551C44.8286 25.3647 45.6984 23.9202 45.9403 22.9019C46.0822 22.3047 46.0015 22.0165 45.6354 21.8132L45.3749 21.6686L42.25 21.6902C40.041 21.7054 39.0805 21.7337 38.9727 21.7866C38.763 21.8895 38.5407 22.2649 38.2621 22.9866C37.5198 24.9088 35.9917 27.6779 34.9847 28.9255C34.5839 29.4221 33.9611 29.9303 33.7533 29.9303C33.4632 29.9303 33.2241 29.7356 33.0428 29.3521L32.8754 28.998L32.8924 25.66C32.9106 22.0703 32.9028 21.9642 32.583 21.4903C32.2681 21.0234 31.5003 20.8633 29.4411 20.8352C28.6073 20.8238 27.7859 20.825 27.6157 20.8379Z" fill="#F5F5F5"/>
<defs>
<filter id="filter0_d_112_32" x="0" y="0" width="70" height="69.6404" filterUnits="userSpaceOnUse" color-interpolation-filters="sRGB">
<feFlood flood-opacity="0" result="BackgroundImageFix"/>
<feColorMatrix in="SourceAlpha" type="matrix" values="0 0 0 0 0 0 0 0 0 0 0 0 0 0 0 0 0 0 127 0" result="hardAlpha"/>
<feOffset dx="5" dy="5"/>
<feGaussianBlur stdDeviation="5"/>
<feComposite in2="hardAlpha" operator="out"/>
<feColorMatrix type="matrix" values="0 0 0 0 0 0 0 0 0 0 0 0 0 0 0 0 0 0 0.5 0"/>
<feBlend mode="normal" in2="BackgroundImageFix" result="effect1_dropShadow_112_32"/>
<feBlend mode="normal" in="SourceGraphic" in2="effect1_dropShadow_112_32" result="shape"/>
</filter>
</defs>
</svg>
