<svg width="90" height="89" viewBox="0 0 90 89" fill="none" xmlns="http://www.w3.org/2000/svg">
<g filter="url(#filter0_d_112_12)">
<path d="M28.5 0C69.5 4 69.5 19.6399 69.5 30.5C64.802 57.8255 54.4191 69 39 69C10.4505 64.2706 0 51.3922 0 33C3.85479 11.4549 18.863 0 28.5 0Z" fill="white"/>
</g>
<path d="M39.5703 41.9915C39.4158 41.9915 39.3 41.9489 39.2228 41.8637C39.1455 41.7501 39.0941 41.6792 39.0683 41.6508C38.9396 41.4804 38.7723 41.3384 38.5663 41.2249C38.3604 41.1113 38.2059 41.0119 38.103 40.9267C38 40.8416 37.9743 40.7422 38.0257 40.6286C38.0515 40.5718 38.1158 40.4583 38.2188 40.2879C38.3218 40.0892 38.4505 39.9188 38.605 39.7768L39.7248 39.2658C41.1406 38.6411 42.7366 37.8461 44.5129 36.8807C44.8733 36.6536 45.3495 36.3981 45.9416 36.1141C46.7139 35.7166 47.2545 35.3901 47.5634 35.1346C47.898 34.8507 48.0525 34.5099 48.0267 34.1124C47.8208 33.5162 47.1257 32.8348 45.9416 32.0681C44.7574 31.2731 43.2129 30.4781 41.3079 29.6831C40.5099 29.3708 39.8406 29.0301 39.3 28.661C38.7851 28.2919 38.5277 27.9654 38.5277 27.6814C38.5277 27.4543 38.6564 27.2839 38.9139 27.1704C38.9653 27.1704 39.0941 27.142 39.3 27.0852C39.5317 27.0284 39.8149 27 40.1495 27C40.7158 27 41.3465 27.1136 42.0416 27.3407L43.0842 27.724C43.7792 27.9796 44.2812 28.1925 44.5901 28.3629C44.9248 28.5048 45.2723 28.7462 45.6327 29.0869C46.4822 29.4844 47.1901 29.9529 47.7564 30.4923C48.3228 31.0034 48.902 31.6848 49.4941 32.5366L50.8069 34.4957L51 35.7734C50.7941 35.8018 50.4851 35.9438 50.0733 36.1993C49.6614 36.4265 49.4297 36.5542 49.3782 36.5826C49.0178 36.8666 48.4772 37.2215 47.7564 37.6474C47.0356 38.0449 46.1218 38.5275 45.0149 39.0954L44.3198 39.4787C43.2386 39.933 42.4406 40.3447 41.9257 40.7138C41.4109 41.0545 41.0505 41.2817 40.8446 41.3952C40.6386 41.5656 40.4069 41.7217 40.1495 41.8637C39.9178 41.9773 39.7505 42.0199 39.6475 41.9915H39.5703Z" fill="#D1191C"/>
<path d="M24.6911 35.8C23.607 35.8 22.6585 35.7207 21.8455 35.562C21.0867 35.562 20.5447 35.5143 20.2195 35.4191C19.9485 35.3239 19.7046 35.1493 19.4878 34.8953C19.1626 34.6096 19 34.3874 19 34.2286C19 34.0381 19.2981 33.8953 19.8943 33.8C20.4905 33.6731 21.5474 33.562 23.065 33.4667C24.6911 33.2445 27.7534 33.0858 32.252 32.9905C36.7507 32.8635 40.5176 32.8 43.5528 32.8C44.9621 32.8 45.9106 32.8477 46.3984 32.9429C46.8862 33.0064 47.4282 33.1969 48.0244 33.5143C48.6748 33.8953 49 34.2604 49 34.6096C49 34.8953 48.7832 35.1016 48.3496 35.2286C47.9702 35.3556 47.4282 35.3874 46.7236 35.3239L41.6016 35.562C39.813 35.5937 37.1572 35.6413 33.6341 35.7048C30.1653 35.7683 27.1843 35.8 24.6911 35.8Z" fill="#D1191C"/>
<defs>
<filter id="filter0_d_112_12" x="0" y="0" width="89.5" height="89" filterUnits="userSpaceOnUse" color-interpolation-filters="sRGB">
<feFlood flood-opacity="0" result="BackgroundImageFix"/>
<feColorMatrix in="SourceAlpha" type="matrix" values="0 0 0 0 0 0 0 0 0 0 0 0 0 0 0 0 0 0 127 0" result="hardAlpha"/>
<feOffset dx="10" dy="10"/>
<feGaussianBlur stdDeviation="5"/>
<feComposite in2="hardAlpha" operator="out"/>
<feColorMatrix type="matrix" values="0 0 0 0 0 0 0 0 0 0 0 0 0 0 0 0 0 0 0.5 0"/>
<feBlend mode="normal" in2="BackgroundImageFix" result="effect1_dropShadow_112_12"/>
<feBlend mode="normal" in="SourceGraphic" in2="effect1_dropShadow_112_12" result="shape"/>
</filter>
</defs>
</svg>
